<mxfile host="app.diagrams.net" agent="Mozilla/5.0 (Windows NT 10.0; Win64; x64; rv:143.0) Gecko/20100101 Firefox/143.0" version="28.2.5">
  <diagram name="Page-1" id="cYRIrVOHwe58oOx4hAv_">
    <mxGraphModel grid="1" page="1" gridSize="10" guides="1" tooltips="1" connect="1" arrows="1" fold="1" pageScale="1" pageWidth="827" pageHeight="1169" math="0" shadow="0">
      <root>
        <mxCell id="0" />
        <mxCell id="1" parent="0" />
        <mxCell id="E4lyAWu2hfmj4Ho5dC-G-31" value="V_sugerencias" style="rounded=0;whiteSpace=wrap;html=1;fillColor=#ffe6cc;strokeColor=#d79b00;" vertex="1" parent="1">
          <mxGeometry x="340" y="80" width="120" height="60" as="geometry" />
        </mxCell>
        <mxCell id="E4lyAWu2hfmj4Ho5dC-G-32" value="&lt;div&gt;C_sugerencia&lt;/div&gt;&lt;div&gt;(route.ts)&lt;/div&gt;" style="rounded=0;whiteSpace=wrap;html=1;fillColor=#e1d5e7;strokeColor=#9673a6;" vertex="1" parent="1">
          <mxGeometry x="695" y="80" width="120" height="60" as="geometry" />
        </mxCell>
        <mxCell id="E4lyAWu2hfmj4Ho5dC-G-33" value="sugerencias" style="rounded=0;whiteSpace=wrap;html=1;fillColor=#d5e8d4;strokeColor=#82b366;" vertex="1" parent="1">
          <mxGeometry x="1035" y="80" width="120" height="60" as="geometry" />
        </mxCell>
        <mxCell id="E4lyAWu2hfmj4Ho5dC-G-34" value="Actor" style="shape=umlActor;verticalLabelPosition=bottom;verticalAlign=top;html=1;outlineConnect=0;" vertex="1" parent="1">
          <mxGeometry x="60" y="80" width="30" height="60" as="geometry" />
        </mxCell>
        <mxCell id="E4lyAWu2hfmj4Ho5dC-G-35" style="edgeStyle=orthogonalEdgeStyle;rounded=0;orthogonalLoop=1;jettySize=auto;html=1;exitX=0.5;exitY=1;exitDx=0;exitDy=0;" edge="1" parent="1" source="E4lyAWu2hfmj4Ho5dC-G-31" target="E4lyAWu2hfmj4Ho5dC-G-31">
          <mxGeometry relative="1" as="geometry" />
        </mxCell>
        <mxCell id="E4lyAWu2hfmj4Ho5dC-G-36" value="" style="endArrow=none;dashed=1;html=1;dashPattern=1 3;strokeWidth=2;rounded=0;entryX=0.5;entryY=0.5;entryDx=0;entryDy=0;entryPerimeter=0;" edge="1" parent="1" target="E4lyAWu2hfmj4Ho5dC-G-34">
          <mxGeometry width="50" height="50" relative="1" as="geometry">
            <mxPoint x="75" y="1110" as="sourcePoint" />
            <mxPoint x="97" y="210" as="targetPoint" />
          </mxGeometry>
        </mxCell>
        <mxCell id="E4lyAWu2hfmj4Ho5dC-G-37" value="" style="endArrow=none;dashed=1;html=1;dashPattern=1 3;strokeWidth=2;rounded=0;entryX=0.5;entryY=1;entryDx=0;entryDy=0;" edge="1" parent="1" target="E4lyAWu2hfmj4Ho5dC-G-32">
          <mxGeometry width="50" height="50" relative="1" as="geometry">
            <mxPoint x="760" y="1120" as="sourcePoint" />
            <mxPoint x="995" y="410" as="targetPoint" />
          </mxGeometry>
        </mxCell>
        <mxCell id="E4lyAWu2hfmj4Ho5dC-G-38" value="" style="endArrow=none;dashed=1;html=1;dashPattern=1 3;strokeWidth=2;rounded=0;entryX=0.5;entryY=1;entryDx=0;entryDy=0;" edge="1" parent="1" target="E4lyAWu2hfmj4Ho5dC-G-33">
          <mxGeometry width="50" height="50" relative="1" as="geometry">
            <mxPoint x="1095" y="1120" as="sourcePoint" />
            <mxPoint x="1165" y="410" as="targetPoint" />
          </mxGeometry>
        </mxCell>
        <mxCell id="E4lyAWu2hfmj4Ho5dC-G-40" value="" style="endArrow=classic;html=1;rounded=0;" edge="1" parent="1">
          <mxGeometry width="50" height="50" relative="1" as="geometry">
            <mxPoint x="80" y="200" as="sourcePoint" />
            <mxPoint x="400" y="200" as="targetPoint" />
          </mxGeometry>
        </mxCell>
        <mxCell id="E4lyAWu2hfmj4Ho5dC-G-41" value="Accede a la pagina de sugerencias" style="edgeLabel;html=1;align=center;verticalAlign=middle;resizable=0;points=[];" connectable="0" vertex="1" parent="E4lyAWu2hfmj4Ho5dC-G-40">
          <mxGeometry x="-0.1758" y="4" relative="1" as="geometry">
            <mxPoint x="-37" y="-6" as="offset" />
          </mxGeometry>
        </mxCell>
        <mxCell id="E4lyAWu2hfmj4Ho5dC-G-44" value="" style="endArrow=classic;html=1;rounded=0;" edge="1" parent="1">
          <mxGeometry width="50" height="50" relative="1" as="geometry">
            <mxPoint x="80" y="240" as="sourcePoint" />
            <mxPoint x="400" y="240" as="targetPoint" />
          </mxGeometry>
        </mxCell>
        <mxCell id="E4lyAWu2hfmj4Ho5dC-G-45" value="Completa formulario solo texto" style="text;html=1;align=center;verticalAlign=middle;resizable=0;points=[];autosize=1;strokeColor=none;fillColor=none;" vertex="1" parent="1">
          <mxGeometry x="70" y="208" width="190" height="30" as="geometry" />
        </mxCell>
        <mxCell id="E4lyAWu2hfmj4Ho5dC-G-46" value="" style="endArrow=classic;html=1;rounded=0;" edge="1" parent="1">
          <mxGeometry width="50" height="50" relative="1" as="geometry">
            <mxPoint x="75" y="276.81999999999994" as="sourcePoint" />
            <mxPoint x="400" y="277" as="targetPoint" />
          </mxGeometry>
        </mxCell>
        <mxCell id="E4lyAWu2hfmj4Ho5dC-G-47" value="Clic en botón Enviar sugerencia" style="text;html=1;align=center;verticalAlign=middle;resizable=0;points=[];autosize=1;strokeColor=none;fillColor=none;" vertex="1" parent="1">
          <mxGeometry x="80" y="250" width="190" height="30" as="geometry" />
        </mxCell>
        <mxCell id="E4lyAWu2hfmj4Ho5dC-G-48" value="" style="endArrow=classic;html=1;rounded=0;" edge="1" parent="1">
          <mxGeometry width="50" height="50" relative="1" as="geometry">
            <mxPoint x="400" y="300" as="sourcePoint" />
            <mxPoint x="400" y="320" as="targetPoint" />
            <Array as="points">
              <mxPoint x="450" y="300" />
              <mxPoint x="450" y="320" />
            </Array>
          </mxGeometry>
        </mxCell>
        <mxCell id="E4lyAWu2hfmj4Ho5dC-G-49" value="Válida texto no vacío" style="text;html=1;align=center;verticalAlign=middle;resizable=0;points=[];autosize=1;strokeColor=none;fillColor=none;" vertex="1" parent="1">
          <mxGeometry x="410" y="270" width="130" height="30" as="geometry" />
        </mxCell>
        <mxCell id="E4lyAWu2hfmj4Ho5dC-G-50" value="" style="endArrow=classic;html=1;rounded=0;" edge="1" parent="1">
          <mxGeometry width="50" height="50" relative="1" as="geometry">
            <mxPoint x="400" y="360" as="sourcePoint" />
            <mxPoint x="750" y="360" as="targetPoint" />
          </mxGeometry>
        </mxCell>
        <mxCell id="E4lyAWu2hfmj4Ho5dC-G-51" value="POST /api/sugerencia(texto, imagen = &quot;&quot;)" style="text;html=1;align=center;verticalAlign=middle;resizable=0;points=[];autosize=1;strokeColor=none;fillColor=none;" vertex="1" parent="1">
          <mxGeometry x="425" y="330" width="240" height="30" as="geometry" />
        </mxCell>
        <mxCell id="E4lyAWu2hfmj4Ho5dC-G-52" value="" style="endArrow=classic;html=1;rounded=0;" edge="1" parent="1">
          <mxGeometry width="50" height="50" relative="1" as="geometry">
            <mxPoint x="760" y="390" as="sourcePoint" />
            <mxPoint x="1090" y="390" as="targetPoint" />
          </mxGeometry>
        </mxCell>
        <mxCell id="E4lyAWu2hfmj4Ho5dC-G-53" value="INSERT INTO sugerencias(id, texto, imagen )" style="text;html=1;align=center;verticalAlign=middle;resizable=0;points=[];autosize=1;strokeColor=none;fillColor=none;" vertex="1" parent="1">
          <mxGeometry x="790" y="360" width="270" height="30" as="geometry" />
        </mxCell>
        <mxCell id="E4lyAWu2hfmj4Ho5dC-G-54" value="" style="endArrow=classic;html=1;rounded=0;dashed=1;" edge="1" parent="1">
          <mxGeometry width="50" height="50" relative="1" as="geometry">
            <mxPoint x="1090" y="460" as="sourcePoint" />
            <mxPoint x="760" y="460" as="targetPoint" />
          </mxGeometry>
        </mxCell>
        <mxCell id="E4lyAWu2hfmj4Ho5dC-G-55" value="ERROR" style="text;html=1;align=center;verticalAlign=middle;resizable=0;points=[];autosize=1;strokeColor=none;fillColor=none;" vertex="1" parent="1">
          <mxGeometry x="865" y="430" width="70" height="30" as="geometry" />
        </mxCell>
        <mxCell id="E4lyAWu2hfmj4Ho5dC-G-56" value="" style="endArrow=classic;html=1;rounded=0;" edge="1" parent="1">
          <mxGeometry width="50" height="50" relative="1" as="geometry">
            <mxPoint x="760" y="490" as="sourcePoint" />
            <mxPoint x="400" y="490" as="targetPoint" />
          </mxGeometry>
        </mxCell>
        <mxCell id="E4lyAWu2hfmj4Ho5dC-G-57" value="ERROR" style="text;html=1;align=center;verticalAlign=middle;resizable=0;points=[];autosize=1;strokeColor=none;fillColor=none;" vertex="1" parent="1">
          <mxGeometry x="625" y="460" width="70" height="30" as="geometry" />
        </mxCell>
        <mxCell id="E4lyAWu2hfmj4Ho5dC-G-58" value="" style="endArrow=classic;html=1;rounded=0;" edge="1" parent="1">
          <mxGeometry width="50" height="50" relative="1" as="geometry">
            <mxPoint x="400" y="520" as="sourcePoint" />
            <mxPoint x="400" y="540" as="targetPoint" />
            <Array as="points">
              <mxPoint x="450" y="520" />
              <mxPoint x="450" y="540" />
            </Array>
          </mxGeometry>
        </mxCell>
        <mxCell id="E4lyAWu2hfmj4Ho5dC-G-59" value="Maneja el error en catch" style="text;html=1;align=center;verticalAlign=middle;resizable=0;points=[];autosize=1;strokeColor=none;fillColor=none;" vertex="1" parent="1">
          <mxGeometry x="420" y="498" width="150" height="30" as="geometry" />
        </mxCell>
        <mxCell id="E4lyAWu2hfmj4Ho5dC-G-60" value="" style="endArrow=classic;html=1;rounded=0;" edge="1" parent="1">
          <mxGeometry width="50" height="50" relative="1" as="geometry">
            <mxPoint x="400" y="562" as="sourcePoint" />
            <mxPoint x="400" y="582" as="targetPoint" />
            <Array as="points">
              <mxPoint x="450" y="562" />
              <mxPoint x="450" y="582" />
            </Array>
          </mxGeometry>
        </mxCell>
        <mxCell id="E4lyAWu2hfmj4Ho5dC-G-61" value="Setea error &quot;Error creando sugerencia&quot;" style="text;html=1;align=center;verticalAlign=middle;resizable=0;points=[];autosize=1;strokeColor=none;fillColor=none;" vertex="1" parent="1">
          <mxGeometry x="390" y="540" width="230" height="30" as="geometry" />
        </mxCell>
        <mxCell id="E4lyAWu2hfmj4Ho5dC-G-62" value="" style="endArrow=classic;html=1;rounded=0;" edge="1" parent="1">
          <mxGeometry width="50" height="50" relative="1" as="geometry">
            <mxPoint x="400" y="620" as="sourcePoint" />
            <mxPoint x="80" y="620" as="targetPoint" />
          </mxGeometry>
        </mxCell>
        <mxCell id="E4lyAWu2hfmj4Ho5dC-G-63" value="Muestra &quot;Error al enviar la sugerencia. Inténtalo de nuevo.&quot;" style="text;html=1;align=center;verticalAlign=middle;resizable=0;points=[];autosize=1;strokeColor=none;fillColor=none;" vertex="1" parent="1">
          <mxGeometry x="70" y="590" width="340" height="30" as="geometry" />
        </mxCell>
        <mxCell id="E4lyAWu2hfmj4Ho5dC-G-64" style="edgeStyle=orthogonalEdgeStyle;rounded=0;orthogonalLoop=1;jettySize=auto;html=1;exitX=0.5;exitY=1;exitDx=0;exitDy=0;" edge="1" parent="1">
          <mxGeometry relative="1" as="geometry">
            <mxPoint x="400" y="610" as="sourcePoint" />
            <mxPoint x="400" y="610" as="targetPoint" />
          </mxGeometry>
        </mxCell>
        <mxCell id="E4lyAWu2hfmj4Ho5dC-G-93" value="" style="endArrow=none;dashed=1;html=1;dashPattern=1 3;strokeWidth=2;rounded=0;entryX=0.5;entryY=1;entryDx=0;entryDy=0;" edge="1" parent="1" target="E4lyAWu2hfmj4Ho5dC-G-31">
          <mxGeometry width="50" height="50" relative="1" as="geometry">
            <mxPoint x="400" y="1110" as="sourcePoint" />
            <mxPoint x="330" y="920" as="targetPoint" />
          </mxGeometry>
        </mxCell>
      </root>
    </mxGraphModel>
  </diagram>
</mxfile>
